<svg width="284" height="767" viewBox="0 0 284 767" fill="none" xmlns="http://www.w3.org/2000/svg">
<path d="M0 76.05C1.95 65.52 2.01 53.94 3.31 43.01C3.51 41.33 3.53 39.57 5.58 39.14C5.61 56.71 18.06 75.8 29.62 88.37C30.41 89.22 38.75 98.64 39.11 93.4C39.27 91.11 25.41 67.39 23.29 62.26C16.07 44.77 14.46 26.2 18.44 7.81C18.88 5.78 19.39 0.95 21.25 0V21.81C21.25 39.48 42.44 76.19 55.31 88.41C57.09 90.09 61.31 93.92 63.76 92.26C58.66 72.88 47.1 56.41 50.41 35.33L53.66 26.86C54.14 55.2 63.31 84.37 86.85 101.6C102.8 113.27 141.61 126.98 145.11 147.35C149.06 170.35 120.62 177.45 124.19 198.48C127.32 216.88 154.57 207.96 166.07 207.94C182.41 207.91 201.98 218.8 203.59 236.52C204.18 243.02 202.29 248.71 202.32 254.46C202.38 264.35 205.87 274.67 201.37 284.72C196.62 295.31 184.08 279.62 177.46 284.01C174.69 285.85 171.93 296.71 172.19 300.29C172.67 306.88 180.43 317.23 184.28 322.93C191.99 334.34 211.59 364.45 223.63 368.58C225.11 369.09 228.36 369.9 229.39 368.44C231.79 363.79 229.33 359.61 229.22 355.16C228.85 340.31 229.36 303.27 239.34 292.49C241.55 290.1 243.24 289.35 246.05 288L224.84 288.5L211.36 225.93L229.26 224.8L228.14 219.21C219.55 224 214.78 215.52 222.23 214.95C226.38 214.63 230.32 219.98 231.5 210.28C226.99 209.7 222.49 208.5 218.08 210.28L220.31 213.61C219.09 213.97 217.27 212.95 216.97 211.92C215.05 205.27 232.18 209.92 228.69 202.42C222.12 201.58 221.64 205.79 219.78 205.89C207.34 206.59 221.61 196.95 228.14 199.06L227.04 195.13L219.34 194.44L218.08 187.89L220.32 193.48C224.6 191.45 227.47 191.62 229.37 196.25C230.68 199.45 229.31 204.99 229.72 207.5C229.95 208.89 232.39 209.65 232.66 211.96C233.13 215.91 226.38 219.7 231.07 224.85L244.97 224.26C246.86 223.07 244.76 220.09 244.97 217.67C247 194.11 287.15 193.29 282.85 223.01C280.97 236.01 266.15 236.04 265.21 238.92C266.18 247.94 257.34 275.62 259.61 282.26C260.34 284.39 263.85 283.13 262.81 286.27C245.56 294.6 238.02 295.6 239.35 317.03C240.38 333.7 243.81 347.33 242.74 365.18C242.48 369.57 241.68 386.56 235.69 385.67C230.04 384.83 206.33 365.19 202.43 367.94C201.04 371.7 203.38 374.46 203.59 378.52C204.09 387.88 204.15 400.55 203.53 409.87C202.06 431.85 193.02 453.09 193.48 475.32C190.31 475.04 186.39 476.06 183.43 474.74C180.43 473.4 180.12 468.5 178.36 467.5C176.19 466.27 176.46 471.55 175.01 473.07C170.89 477.39 160.53 474.55 162.15 467.48C155.69 469.53 147.58 474.42 142.03 468.03L160.37 452.85C182.9 420.9 157.22 387.82 147.57 357.36C134.67 316.64 155.09 316.78 162.71 284.07C163.55 280.46 166.16 274.86 161.58 274C151.1 272.03 136.03 285.72 125 288.86C90.01 298.82 57.94 275.35 51.76 240.68C46.08 208.85 57.53 192.18 36.68 161.81C19.24 136.38 2.84 125.29 0 90.59V76.05ZM167.76 233.76C156.32 236.15 159.31 234.3 153.26 228.69C152.16 227.67 151.67 226.64 149.88 227.05L150.85 237.44C150.02 240.4 143.82 241.02 144.29 244.94L150.88 245.07L152.12 253.89C156.09 253.96 157.14 249.2 157.72 246.07L166.65 249.42L162.28 241.03C164.22 238.2 168.73 238.12 167.77 233.77L167.76 233.76Z" fill="white"/>
<path d="M128.6 603.97C137.02 621.14 149.44 636.43 157.89 653.54C166.68 671.34 167.64 705.31 161.03 723.89C160.75 724.69 156.31 727.41 154.88 729.2C143.27 743.69 127.98 764.11 107.92 766.12C69.77 769.94 53.3 738.05 30.2 714.69C52.99 707.72 68.96 694.33 94.56 695.62C101.45 695.97 108.09 699.24 113.79 699.9C115.77 700.13 116.16 700.17 117.42 698.45C83.77 667.13 123.74 638.01 126.39 604.51L128.61 603.95L128.6 603.97ZM128.63 624.1C130.51 630.5 132.34 637.01 133.08 643.68C134.48 656.29 132.85 671.44 134.51 683.64C136.1 695.39 145.44 702.5 147.55 714.22C148.16 717.59 145.8 723.88 150.42 724.75C152.27 724.44 151.18 716.77 150.97 715.27C149.1 701.53 139.09 694.36 137.7 682.69C135.77 666.52 138.68 649.95 134.82 633C134.02 629.47 133.6 623.07 128.63 624.1ZM124.72 635.29C122.14 635.83 123.33 642.52 122.91 644.68C120.11 659.2 115.22 664.4 119.99 680.27C123.11 690.65 132.16 704.01 137.53 714.18C139.87 718.61 142.73 719.46 141.27 713.81C136.13 694.04 119.03 688.34 122.03 661.69C122.76 655.18 128.1 643.86 127.54 638.06C127.4 636.62 126.33 634.96 124.73 635.29H124.72ZM155.46 700.16C156.66 689.55 149.11 681.16 146.85 671.3C144.64 661.64 146.77 652.04 142.6 643.14C140.41 644.71 140.8 647.01 140.85 649.29C140.98 655.67 142.07 666.2 143.49 672.42C145.67 681.95 152.82 690.01 152.11 700.16H155.46ZM137.56 725.87C138.05 723.76 136.37 723.22 135.33 721.96C119.65 702.91 85.98 707.6 64.87 713.6C65.03 715.38 63.75 717.18 66.48 716.89C71.63 716.34 78.25 713.61 83.62 712.76C97.79 710.53 116.48 711.42 128.52 719.83C131.58 721.97 133.27 726.42 137.56 725.88V725.87ZM129.73 729.22C130.14 726.54 127.51 725.84 125.68 724.9C111.71 717.76 100.55 724.89 86.69 723.62C75.91 722.64 64.93 715.69 53.68 716.93V720.28C64.27 719.15 74.67 725.7 84.57 726.87C94.38 728.03 102.63 724.7 111.17 724.87C117.37 724.99 123.67 728.5 129.74 729.22H129.73ZM143.16 731.47C131.6 731.46 127.61 743.08 117.41 746.53C100.67 752.19 78.73 746.57 64.52 736.85C61.75 734.96 56.58 729.56 54.82 728.65C53.3 727.86 51.71 728.58 51.45 729.81C50.95 732.14 67.95 743.66 70.82 745.09C83.31 751.32 106.26 754.5 119.32 749.57C126.35 746.92 129.93 741.91 135.4 737.69C137.93 735.74 143.17 735.39 143.15 731.48L143.16 731.47Z" fill="white"/>
<path d="M183.07 523C183.52 522.74 183.28 521.14 183.93 521.22C184.75 521.32 186.42 522.82 187.85 523C192.4 523.57 196.2 522.24 200.18 520.08L204.63 539C200.04 540.75 193.47 544.41 193.45 536.87H190.17C190.66 543.63 179.67 545.22 175.15 542.33C173.45 541.24 172.65 537.5 170.58 537.98C166.62 550.27 158.75 548.65 150.4 541.27L148.92 541.52C147.28 546.56 138.35 548.31 134.27 545.18C131.49 543.04 124.57 524.47 126.39 522.32C132.02 526.7 141.61 520.33 143.71 520.46C145.11 520.55 151.06 525.42 156.06 525.71C161.93 526.06 162.72 522.97 165.16 522.53C169.06 521.84 172.6 529.07 183.07 522.99V523Z" fill="white"/>
<path d="M194.57 497.74L198.98 515.99C192.99 521.63 188.7 520.76 182.88 515.61C180.17 522.79 174.85 524.13 168.42 519.94C166.53 518.71 167.18 515.79 163.9 516.68C159.44 526.89 148.37 521.76 143.72 514.51C139.84 519.28 135.09 521.86 128.91 519.23C121.63 516.13 125.37 501.69 125.28 495.48C131.95 501.14 141.2 499.73 147.62 494.36C150.56 502.48 157.36 503.16 164.74 500.84C166.42 500.31 168.78 498.08 169.43 498.08C170.08 498.08 172.6 500.18 174.39 500.59C182 502.35 187.37 498.81 194.56 497.74H194.57Z" fill="white"/>
<path d="M205.78 542.44L212.49 562.58L204.28 560.26C203.46 560.39 202.02 565.84 197.41 565.85C192.81 565.85 193.08 560.37 189.57 561.44C186.21 571.4 178.35 571.24 170.58 565.93C168.2 572.01 162.61 576.53 155.95 572.7C154.75 572.01 138.13 553.21 137.57 551.94C136.69 549.94 138.39 550.48 139.19 550.25C141.45 549.58 144.06 549.38 146.51 548.61C148.02 548.14 149.97 546 150.44 546C151.06 546 155.13 550.8 161.6 550.35C166.94 549.98 170 545.22 171.85 544.86C172.6 544.71 178.41 547.34 182.86 546.93C186.92 546.55 188.82 544.22 190.97 543.81C194.3 543.17 200.94 545.92 205.78 542.45V542.44Z" fill="white"/>
<path d="M193.5 478.69L194.14 493.3C189.82 495.52 178.73 499.73 174.46 497.17L170.57 489.9C165.67 501.91 149.18 502.62 149.87 487.63L146.43 488.33C145.95 492.29 141.74 494.87 138.05 495.41C119.17 498.13 129.15 476.81 138.29 471.04C142.13 471.85 145.41 475.02 149.44 475.29C152.7 475.51 156.44 473.27 158.29 473.52C159.58 473.69 163.23 478.07 167.29 478.63C173.98 479.56 174.9 475.9 177.46 475.51C178.34 475.37 189.51 481.27 193.49 478.68L193.5 478.69Z" fill="white"/>
<path d="M214.48 566.2C215.91 567.21 219.15 579.24 221.46 581.58L215.3 579.4C214.53 579.41 212.05 585.59 208.4 585.9C205.71 586.13 204.47 581.03 201.33 581.6C202.45 592.45 195.23 591.02 188.48 586.07C186.55 586.49 186.85 601.16 179.46 596.2C177.95 595.18 162.65 579.92 162.18 578.78L171.9 571.7C179.04 572.86 187.25 574.86 190.79 566.99C198.36 573.18 203.83 565.17 207.48 564.81C208.32 564.73 213.96 565.83 214.48 566.2Z" fill="white"/>
<path d="M204.73 606.24C204.71 610.15 202.48 612.74 199.65 615.12C196.55 610.35 188.67 606.18 185.63 602.32C184.89 601.38 184.12 601.05 184.6 599.55C188.29 598.95 189.37 594.79 190.18 591.65C193.53 593.22 198.7 593.54 201.81 591.54C203.03 590.76 203.3 588.8 203.81 588.49C204.57 588.01 208.28 589.17 210.76 588.32C214.61 586.99 217.76 582.04 223.23 585.98C224.01 586.54 228.7 595.11 229.36 596.63C229.75 597.53 231.26 598.29 229.9 599.52C226.26 602.21 222.87 601.67 218.8 600.67L213.96 607.15L204.74 606.24H204.73Z" fill="white"/>
<path d="M233.65 602.93L240.47 615.68C237.15 620.02 234.28 614.9 230.4 615.15V621.85C227.99 622.99 222.79 618.48 222 618.52C219.21 618.69 223.15 627.11 218.5 628.49C215.96 629.24 206.75 619.37 203.57 617.85L207.96 610.06C212.06 610.98 214.79 610.68 218.39 608.45C219.47 607.78 219.53 605.81 221.06 605.28C223.97 604.26 230.18 604.1 233.65 602.92V602.93Z" fill="white"/>
<path d="M243.72 619.69L251.64 636.39L247.13 635.71C245.3 642.9 240.9 641.82 235.46 638.62L232.08 646.44L220.37 630.86C223.46 630.86 224.06 626.61 224.84 624.09C231.68 628.34 232.33 621.91 233.98 620.97C235.3 620.22 241.46 620.46 243.72 619.68V619.69Z" fill="white"/>
<path d="M251.98 660.65C250.79 659.81 250.95 656.51 247.22 657.67C247.48 659.59 242.88 667.14 241.04 664.36C240.49 663.53 235.17 651.94 235.07 651.23C234.66 648.45 237.51 646.04 237.14 643.1C244.31 647.42 246.25 641.65 250.19 640.1C257.37 637.28 257.62 656.38 259.21 660.5C257.75 663.27 254.16 662.18 251.99 660.65H251.98Z" fill="white"/>
<path d="M259.49 665.47L258.35 684.49C254.51 683.67 256.39 677.56 252.21 678.87C250.25 682.43 248.46 685.25 243.82 684.49L243.21 668.86L248.96 663.31L259.49 665.47Z" fill="white"/>
<path d="M251.64 707.98C248.65 706.72 248.2 703.02 248.29 700.15C234.86 704.03 242.86 697.01 243.21 688.91C263.89 679.93 256.45 695.78 251.64 707.98Z" fill="white"/>
<path d="M219.23 735.94L219.88 729.17C218.82 727.9 214.67 728.74 215.87 726.44C216.17 725.87 225.39 718.84 225.97 718.57C231.28 716.12 234.15 719.99 235.81 724.43L235.53 725.87L219.22 735.93L219.23 735.94Z" fill="white"/>
<path d="M247.58 709.87C247.95 710.47 249.66 709.87 249.41 710.76L239.89 722.51C235.37 722.34 238.37 715.78 236.03 714.05L230.41 714.67C232.69 712.71 236.81 705.6 239.05 704.85C244.52 703.03 245.52 706.49 247.6 709.86L247.58 709.87Z" fill="white"/>
<path d="M215.7 738.02L206.34 741.5C202.86 740.01 206.68 734.79 205.76 733.75C205.42 733.36 201.48 733.94 201.32 731.47C208.9 729.46 217.58 726.3 215.7 738.01V738.02Z" fill="white"/>
<path d="M175.6 742.65C177 738.95 178.15 737.92 176.72 733.71C184 732.18 192.08 737.08 185 743.58L175.6 742.65Z" fill="white"/>
<path d="M201.07 736.17C201.89 737.63 201.22 740.76 201.25 742.59L190.14 743.76L194.59 737.61L190.14 733.71C193.2 732.06 199.5 733.38 201.07 736.17Z" fill="white"/>
<path d="M171.95 732.86C174.07 734.69 173.16 739.15 172.17 741.49L163.29 739.28C162.01 736.28 166.19 737.11 166.55 735.33L165.53 731.48C165.9 731.14 171.24 732.26 171.94 732.87L171.95 732.86Z" fill="white"/>
<path d="M161.05 729.24L161.58 734.88C154.09 741.53 153.86 730.34 161.05 729.24Z" fill="white"/>
</svg>
